<svg width="1087" height="267" viewBox="0 0 1087 267" fill="none" xmlns="http://www.w3.org/2000/svg">
<path d="M434.656 12.36H412.384V1.79999H469.408V12.36H447.136V69H434.656V12.36ZM529.174 58.536V69H478.774V1.79999H527.83V12.264H491.254V29.736H523.702V40.008H491.254V58.536H529.174ZM573.909 69.96C567.125 69.96 560.981 68.488 555.477 65.544C550.037 62.536 545.749 58.408 542.613 53.16C539.541 47.912 538.005 41.992 538.005 35.4C538.005 28.808 539.573 22.888 542.709 17.64C545.845 12.392 550.133 8.29599 555.573 5.35199C561.077 2.34399 567.221 0.840027 574.005 0.840027C579.509 0.840027 584.533 1.79997 589.077 3.71997C593.621 5.63997 597.461 8.42402 600.597 12.072L592.533 19.656C587.669 14.408 581.685 11.784 574.581 11.784C569.973 11.784 565.845 12.808 562.197 14.856C558.549 16.84 555.701 19.624 553.653 23.208C551.605 26.792 550.581 30.856 550.581 35.4C550.581 39.944 551.605 44.008 553.653 47.592C555.701 51.176 558.549 53.992 562.197 56.04C565.845 58.024 569.973 59.016 574.581 59.016C581.685 59.016 587.669 56.36 592.533 51.048L600.597 58.728C597.461 62.376 593.589 65.16 588.981 67.08C584.437 69 579.413 69.96 573.909 69.96ZM672.267 1.79999V69H659.787V40.2H625.035V69H612.555V1.79999H625.035V29.544H659.787V1.79999H672.267ZM721.378 69.96C714.594 69.96 708.45 68.488 702.946 65.544C697.506 62.536 693.218 58.408 690.082 53.16C687.01 47.912 685.474 41.992 685.474 35.4C685.474 28.808 687.042 22.888 690.178 17.64C693.314 12.392 697.602 8.29599 703.042 5.35199C708.546 2.34399 714.69 0.840027 721.474 0.840027C726.978 0.840027 732.002 1.79997 736.546 3.71997C741.09 5.63997 744.93 8.42402 748.066 12.072L740.002 19.656C735.138 14.408 729.154 11.784 722.05 11.784C717.442 11.784 713.314 12.808 709.666 14.856C706.018 16.84 703.17 19.624 701.122 23.208C699.074 26.792 698.05 30.856 698.05 35.4C698.05 39.944 699.074 44.008 701.122 47.592C703.17 51.176 706.018 53.992 709.666 56.04C713.314 58.024 717.442 59.016 722.05 59.016C729.154 59.016 735.138 56.36 740.002 51.048L748.066 58.728C744.93 62.376 741.058 65.16 736.45 67.08C731.906 69 726.882 69.96 721.378 69.96ZM790.01 69.96C783.162 69.96 776.986 68.488 771.482 65.544C765.978 62.536 761.658 58.408 758.522 53.16C755.386 47.848 753.818 41.928 753.818 35.4C753.818 28.872 755.386 22.984 758.522 17.736C761.658 12.424 765.978 8.29599 771.482 5.35199C776.986 2.34399 783.162 0.840027 790.01 0.840027C796.858 0.840027 803.034 2.34399 808.54 5.35199C814.04 8.29599 818.36 12.392 821.5 17.64C824.63 22.888 826.2 28.808 826.2 35.4C826.2 41.992 824.63 47.912 821.5 53.16C818.36 58.408 814.04 62.536 808.54 65.544C803.034 68.488 796.858 69.96 790.01 69.96ZM790.01 59.016C794.49 59.016 798.522 58.024 802.106 56.04C805.69 53.992 808.51 51.176 810.55 47.592C812.6 43.944 813.63 39.88 813.63 35.4C813.63 30.92 812.6 26.888 810.55 23.304C808.51 19.656 805.69 16.84 802.106 14.856C798.522 12.808 794.49 11.784 790.01 11.784C785.53 11.784 781.498 12.808 777.914 14.856C774.33 16.84 771.514 19.656 769.466 23.304C767.418 26.888 766.394 30.92 766.394 35.4C766.394 39.88 767.418 43.944 769.466 47.592C771.514 51.176 774.33 53.992 777.914 56.04C781.498 58.024 785.53 59.016 790.01 59.016ZM883.4 69L869.67 49.32C869.09 49.384 868.23 49.416 867.08 49.416H851.91V69H839.43V1.79999H867.08C872.9 1.79999 877.96 2.75999 882.25 4.67999C886.6 6.59999 889.93 9.35197 892.23 12.936C894.53 16.52 895.69 20.776 895.69 25.704C895.69 30.76 894.44 35.112 891.94 38.76C889.51 42.408 885.99 45.128 881.38 46.92L896.84 69H883.4ZM883.11 25.704C883.11 21.416 881.7 18.12 878.89 15.816C876.07 13.512 871.94 12.36 866.5 12.36H851.91V39.144H866.5C871.94 39.144 876.07 37.992 878.89 35.688C881.7 33.32 883.11 29.992 883.11 25.704ZM922.34 12.36H900.07V1.79999H957.1V12.36H934.82V69H922.34V12.36ZM1016.86 58.536V69H966.46V1.79999H1015.52V12.264H978.94V29.736H1011.39V40.008H978.94V58.536H1016.86ZM1072.36 69L1054.12 43.464L1036.07 69H1021.86L1046.82 34.728L1023.21 1.79999H1037.32L1054.5 25.704L1071.5 1.79999H1085.03L1061.51 34.248L1086.76 69H1072.36Z" fill="#1596FA"/>
<path d="M446.872 95.2C452.504 95.2 456.92 96.544 460.12 99.232C463.32 101.877 464.92 105.568 464.92 110.304C464.92 114.997 463.32 118.688 460.12 121.376C456.92 124.021 452.504 125.344 446.872 125.344H434.072V140H430.808V95.2H446.872ZM446.872 122.4C451.651 122.4 455.299 121.355 457.816 119.264C460.333 117.173 461.592 114.187 461.592 110.304C461.592 106.421 460.333 103.435 457.816 101.344C455.299 99.211 451.651 98.144 446.872 98.144H434.072V122.4H446.872ZM487.778 140.256C484.62 140.256 481.762 139.531 479.202 138.08C476.684 136.629 474.7 134.624 473.25 132.064C471.799 129.461 471.074 126.539 471.074 123.296C471.074 120.053 471.799 117.152 473.25 114.592C474.7 111.989 476.684 109.963 479.202 108.512C481.762 107.061 484.62 106.336 487.778 106.336C490.935 106.336 493.772 107.061 496.29 108.512C498.85 109.963 500.855 111.989 502.306 114.592C503.756 117.152 504.482 120.053 504.482 123.296C504.482 126.539 503.756 129.461 502.306 132.064C500.855 134.624 498.85 136.629 496.29 138.08C493.772 139.531 490.935 140.256 487.778 140.256ZM487.778 137.376C490.338 137.376 492.62 136.779 494.626 135.584C496.674 134.389 498.274 132.725 499.426 130.592C500.62 128.459 501.218 126.027 501.218 123.296C501.218 120.565 500.62 118.133 499.426 116C498.274 113.867 496.674 112.203 494.626 111.008C492.62 109.813 490.338 109.216 487.778 109.216C485.218 109.216 482.914 109.813 480.866 111.008C478.86 112.203 477.26 113.867 476.066 116C474.914 118.133 474.338 120.565 474.338 123.296C474.338 126.027 474.914 128.459 476.066 130.592C477.26 132.725 478.86 134.389 480.866 135.584C482.914 136.779 485.218 137.376 487.778 137.376ZM561.216 106.592L548.544 140H545.536L534.272 111.008L522.944 140H520L507.328 106.592H510.4L521.536 136.416L532.928 106.592H535.68L547.008 136.352L558.272 106.592H561.216ZM595.946 124.064H567.21C567.295 126.667 567.956 128.992 569.194 131.04C570.431 133.045 572.095 134.603 574.186 135.712C576.319 136.821 578.708 137.376 581.354 137.376C583.53 137.376 585.535 136.992 587.37 136.224C589.247 135.413 590.804 134.24 592.042 132.704L593.898 134.816C592.447 136.565 590.612 137.909 588.394 138.848C586.218 139.787 583.85 140.256 581.29 140.256C577.962 140.256 574.996 139.531 572.394 138.08C569.791 136.629 567.743 134.624 566.25 132.064C564.799 129.504 564.074 126.581 564.074 123.296C564.074 120.053 564.756 117.152 566.122 114.592C567.53 111.989 569.45 109.963 571.882 108.512C574.314 107.061 577.044 106.336 580.074 106.336C583.103 106.336 585.812 107.061 588.202 108.512C590.634 109.92 592.532 111.904 593.898 114.464C595.306 117.024 596.01 119.925 596.01 123.168L595.946 124.064ZM580.074 109.152C577.727 109.152 575.615 109.685 573.738 110.752C571.86 111.776 570.346 113.248 569.194 115.168C568.084 117.045 567.444 119.179 567.274 121.568H592.874C592.746 119.179 592.106 117.045 590.954 115.168C589.802 113.291 588.287 111.819 586.41 110.752C584.532 109.685 582.42 109.152 580.074 109.152ZM608.981 113.888C610.005 111.456 611.605 109.6 613.781 108.32C615.957 106.997 618.602 106.336 621.717 106.336V109.472L620.949 109.408C617.237 109.408 614.336 110.581 612.245 112.928C610.154 115.232 609.109 118.453 609.109 122.592V140H605.909V106.592H608.981V113.888ZM630.534 106.592H633.734V140H630.534V106.592ZM632.134 98.464C631.409 98.464 630.79 98.229 630.278 97.76C629.766 97.248 629.51 96.629 629.51 95.904C629.51 95.179 629.766 94.56 630.278 94.048C630.79 93.536 631.409 93.28 632.134 93.28C632.859 93.28 633.478 93.536 633.99 94.048C634.502 94.517 634.758 95.115 634.758 95.84C634.758 96.565 634.502 97.184 633.99 97.696C633.478 98.208 632.859 98.464 632.134 98.464ZM663.542 106.336C667.723 106.336 671.03 107.552 673.462 109.984C675.894 112.416 677.11 115.915 677.11 120.48V140H673.91V120.736C673.91 116.981 672.95 114.123 671.03 112.16C669.152 110.197 666.507 109.216 663.094 109.216C659.168 109.216 656.075 110.389 653.814 112.736C651.552 115.083 650.422 118.24 650.422 122.208V140H647.222V106.592H650.294V113.824C651.446 111.477 653.152 109.643 655.414 108.32C657.718 106.997 660.427 106.336 663.542 106.336ZM720.427 106.592V136.416C720.427 141.963 719.083 146.059 716.395 148.704C713.707 151.349 709.653 152.672 704.235 152.672C701.163 152.672 698.261 152.203 695.531 151.264C692.8 150.325 690.603 149.024 688.939 147.36L690.667 144.928C692.331 146.464 694.336 147.659 696.683 148.512C699.029 149.365 701.525 149.792 704.171 149.792C708.608 149.792 711.893 148.725 714.027 146.592C716.16 144.501 717.227 141.237 717.227 136.8V131.168C715.861 133.6 713.963 135.477 711.531 136.8C709.099 138.123 706.368 138.784 703.339 138.784C700.224 138.784 697.387 138.101 694.827 136.736C692.309 135.328 690.325 133.387 688.875 130.912C687.424 128.437 686.699 125.643 686.699 122.528C686.699 119.413 687.424 116.619 688.875 114.144C690.325 111.669 692.309 109.749 694.827 108.384C697.387 107.019 700.224 106.336 703.339 106.336C706.411 106.336 709.184 107.019 711.659 108.384C714.133 109.749 716.032 111.669 717.354 114.144V106.592H720.427ZM703.595 135.904C706.197 135.904 708.544 135.349 710.635 134.24C712.725 133.088 714.347 131.509 715.499 129.504C716.693 127.456 717.291 125.131 717.291 122.528C717.291 119.925 716.693 117.621 715.499 115.616C714.347 113.611 712.725 112.053 710.635 110.944C708.544 109.792 706.197 109.216 703.595 109.216C700.992 109.216 698.645 109.792 696.555 110.944C694.507 112.053 692.885 113.611 691.691 115.616C690.539 117.621 689.963 119.925 689.963 122.528C689.963 125.131 690.539 127.456 691.691 129.504C692.885 131.509 694.507 133.088 696.555 134.24C698.645 135.349 700.992 135.904 703.595 135.904Z" fill="#1596FA"/>
<path d="M444.632 186.576V202H441.368V186.576L423.32 157.2H426.904L443.096 183.568L459.288 157.2H462.68L444.632 186.576ZM479.028 202.256C475.87 202.256 473.012 201.531 470.452 200.08C467.934 198.629 465.95 196.624 464.5 194.064C463.049 191.461 462.324 188.539 462.324 185.296C462.324 182.053 463.049 179.152 464.5 176.592C465.95 173.989 467.934 171.963 470.452 170.512C473.012 169.061 475.87 168.336 479.028 168.336C482.185 168.336 485.022 169.061 487.54 170.512C490.1 171.963 492.105 173.989 493.556 176.592C495.006 179.152 495.732 182.053 495.732 185.296C495.732 188.539 495.006 191.461 493.556 194.064C492.105 196.624 490.1 198.629 487.54 200.08C485.022 201.531 482.185 202.256 479.028 202.256ZM479.028 199.376C481.588 199.376 483.87 198.779 485.876 197.584C487.924 196.389 489.524 194.725 490.676 192.592C491.87 190.459 492.468 188.027 492.468 185.296C492.468 182.565 491.87 180.133 490.676 178C489.524 175.867 487.924 174.203 485.876 173.008C483.87 171.813 481.588 171.216 479.028 171.216C476.468 171.216 474.164 171.813 472.116 173.008C470.11 174.203 468.51 175.867 467.316 178C466.164 180.133 465.588 182.565 465.588 185.296C465.588 188.027 466.164 190.459 467.316 192.592C468.51 194.725 470.11 196.389 472.116 197.584C474.164 198.779 476.468 199.376 479.028 199.376ZM534.907 168.592V202H531.835V194.832C530.726 197.179 529.083 199.013 526.907 200.336C524.731 201.616 522.171 202.256 519.227 202.256C514.875 202.256 511.462 201.04 508.987 198.608C506.512 196.176 505.275 192.677 505.275 188.112V168.592H508.475V187.856C508.475 191.611 509.435 194.469 511.355 196.432C513.275 198.395 515.984 199.376 519.483 199.376C523.238 199.376 526.203 198.203 528.379 195.856C530.598 193.509 531.707 190.352 531.707 186.384V168.592H534.907ZM551.544 175.888C552.568 173.456 554.168 171.6 556.344 170.32C558.52 168.997 561.165 168.336 564.28 168.336V171.472L563.512 171.408C559.8 171.408 556.898 172.581 554.808 174.928C552.717 177.232 551.672 180.453 551.672 184.592V202H548.472V168.592H551.544V175.888Z" fill="#1596FA"/>
<path d="M446.872 221.2C452.504 221.2 456.92 222.544 460.12 225.232C463.32 227.877 464.92 231.568 464.92 236.304C464.92 240.997 463.32 244.688 460.12 247.376C456.92 250.021 452.504 251.344 446.872 251.344H434.072V266H430.808V221.2H446.872ZM446.872 248.4C451.651 248.4 455.299 247.355 457.816 245.264C460.333 243.173 461.592 240.187 461.592 236.304C461.592 232.421 460.333 229.435 457.816 227.344C455.299 225.211 451.651 224.144 446.872 224.144H434.072V248.4H446.872ZM502.946 250.064H474.21C474.295 252.667 474.956 254.992 476.194 257.04C477.431 259.045 479.095 260.603 481.186 261.712C483.319 262.821 485.708 263.376 488.354 263.376C490.53 263.376 492.535 262.992 494.37 262.224C496.247 261.413 497.804 260.24 499.042 258.704L500.898 260.816C499.447 262.565 497.612 263.909 495.394 264.848C493.218 265.787 490.85 266.256 488.29 266.256C484.962 266.256 481.996 265.531 479.394 264.08C476.791 262.629 474.743 260.624 473.25 258.064C471.799 255.504 471.074 252.581 471.074 249.296C471.074 246.053 471.756 243.152 473.122 240.592C474.53 237.989 476.45 235.963 478.882 234.512C481.314 233.061 484.044 232.336 487.074 232.336C490.103 232.336 492.812 233.061 495.202 234.512C497.634 235.92 499.532 237.904 500.898 240.464C502.306 243.024 503.01 245.925 503.01 249.168L502.946 250.064ZM487.074 235.152C484.727 235.152 482.615 235.685 480.738 236.752C478.86 237.776 477.346 239.248 476.194 241.168C475.084 243.045 474.444 245.179 474.274 247.568H499.874C499.746 245.179 499.106 243.045 497.954 241.168C496.802 239.291 495.287 237.819 493.41 236.752C491.532 235.685 489.42 235.152 487.074 235.152ZM515.981 239.888C517.005 237.456 518.605 235.6 520.781 234.32C522.957 232.997 525.602 232.336 528.717 232.336V235.472L527.949 235.408C524.237 235.408 521.336 236.581 519.245 238.928C517.154 241.232 516.109 244.453 516.109 248.592V266H512.909V232.592H515.981V239.888ZM548.145 221.008C543.963 221.008 541.873 223.248 541.873 227.728V232.592H552.561V235.344H541.937V266H538.737V235.344H532.593V232.592H538.737V227.472C538.737 224.656 539.547 222.416 541.169 220.752C542.79 219.088 545.073 218.256 548.017 218.256C549.297 218.256 550.513 218.448 551.665 218.832C552.859 219.173 553.841 219.707 554.609 220.432L553.329 222.864C551.963 221.627 550.235 221.008 548.145 221.008ZM571.59 266.256C568.433 266.256 565.574 265.531 563.014 264.08C560.497 262.629 558.513 260.624 557.062 258.064C555.611 255.461 554.886 252.539 554.886 249.296C554.886 246.053 555.611 243.152 557.062 240.592C558.513 237.989 560.497 235.963 563.014 234.512C565.574 233.061 568.433 232.336 571.59 232.336C574.747 232.336 577.585 233.061 580.102 234.512C582.662 235.963 584.667 237.989 586.118 240.592C587.569 243.152 588.294 246.053 588.294 249.296C588.294 252.539 587.569 255.461 586.118 258.064C584.667 260.624 582.662 262.629 580.102 264.08C577.585 265.531 574.747 266.256 571.59 266.256ZM571.59 263.376C574.15 263.376 576.433 262.779 578.438 261.584C580.486 260.389 582.086 258.725 583.238 256.592C584.433 254.459 585.03 252.027 585.03 249.296C585.03 246.565 584.433 244.133 583.238 242C582.086 239.867 580.486 238.203 578.438 237.008C576.433 235.813 574.15 235.216 571.59 235.216C569.03 235.216 566.726 235.813 564.678 237.008C562.673 238.203 561.073 239.867 559.878 242C558.726 244.133 558.15 246.565 558.15 249.296C558.15 252.027 558.726 254.459 559.878 256.592C561.073 258.725 562.673 260.389 564.678 261.584C566.726 262.779 569.03 263.376 571.59 263.376ZM601.294 239.888C602.318 237.456 603.918 235.6 606.094 234.32C608.27 232.997 610.915 232.336 614.03 232.336V235.472L613.262 235.408C609.55 235.408 606.648 236.581 604.558 238.928C602.467 241.232 601.422 244.453 601.422 248.592V266H598.222V232.592H601.294V239.888ZM664.447 232.336C668.585 232.336 671.828 233.552 674.175 235.984C676.564 238.416 677.759 241.915 677.759 246.48V266H674.559V246.736C674.559 242.981 673.641 240.123 671.807 238.16C669.972 236.197 667.412 235.216 664.127 235.216C660.372 235.216 657.385 236.389 655.167 238.736C652.991 241.083 651.903 244.24 651.903 248.208V266H648.703V246.736C648.703 242.981 647.785 240.123 645.951 238.16C644.116 236.197 641.556 235.216 638.271 235.216C634.516 235.216 631.529 236.389 629.311 238.736C627.135 241.083 626.047 244.24 626.047 248.208V266H622.847V232.592H625.919V239.76C627.028 237.413 628.671 235.6 630.847 234.32C633.065 232.997 635.689 232.336 638.719 232.336C641.748 232.336 644.308 233.019 646.399 234.384C648.532 235.749 650.047 237.755 650.943 240.4C652.052 237.925 653.78 235.963 656.127 234.512C658.516 233.061 661.289 232.336 664.447 232.336ZM702.236 232.336C706.374 232.336 709.553 233.403 711.772 235.536C713.99 237.627 715.1 240.72 715.1 244.816V266H712.028V260.048C710.961 262.011 709.404 263.547 707.356 264.656C705.308 265.723 702.854 266.256 699.996 266.256C696.284 266.256 693.34 265.381 691.164 263.632C689.03 261.883 687.964 259.579 687.964 256.72C687.964 253.947 688.945 251.707 690.908 250C692.913 248.251 696.092 247.376 700.444 247.376H711.9V244.688C711.9 241.573 711.046 239.205 709.34 237.584C707.676 235.963 705.222 235.152 701.98 235.152C699.761 235.152 697.628 235.536 695.58 236.304C693.574 237.072 691.868 238.096 690.46 239.376L688.86 237.072C690.524 235.579 692.529 234.427 694.876 233.616C697.222 232.763 699.676 232.336 702.236 232.336ZM700.444 263.632C703.217 263.632 705.564 262.992 707.484 261.712C709.446 260.432 710.918 258.576 711.9 256.144V249.872H700.508C697.222 249.872 694.833 250.469 693.34 251.664C691.889 252.859 691.164 254.501 691.164 256.592C691.164 258.768 691.974 260.496 693.595 261.776C695.217 263.013 697.5 263.632 700.444 263.632ZM744.604 232.336C748.785 232.336 752.092 233.552 754.524 235.984C756.956 238.416 758.172 241.915 758.172 246.48V266H754.972V246.736C754.972 242.981 754.012 240.123 752.092 238.16C750.215 236.197 747.569 235.216 744.156 235.216C740.231 235.216 737.137 236.389 734.876 238.736C732.615 241.083 731.484 244.24 731.484 248.208V266H728.284V232.592H731.356V239.824C732.508 237.477 734.215 235.643 736.476 234.32C738.78 232.997 741.489 232.336 744.604 232.336ZM784.657 266.256C781.414 266.256 778.513 265.531 775.953 264.08C773.393 262.629 771.388 260.624 769.937 258.064C768.486 255.461 767.761 252.539 767.761 249.296C767.761 246.011 768.486 243.088 769.937 240.528C771.388 237.925 773.393 235.92 775.953 234.512C778.513 233.061 781.414 232.336 784.657 232.336C787.345 232.336 789.777 232.869 791.953 233.936C794.172 234.96 795.964 236.475 797.329 238.48L794.961 240.208C793.766 238.544 792.273 237.307 790.481 236.496C788.732 235.643 786.79 235.216 784.657 235.216C782.054 235.216 779.708 235.813 777.617 237.008C775.569 238.16 773.948 239.803 772.753 241.936C771.601 244.069 771.025 246.523 771.025 249.296C771.025 252.069 771.601 254.523 772.753 256.656C773.948 258.789 775.569 260.453 777.617 261.648C779.708 262.8 782.054 263.376 784.657 263.376C786.79 263.376 788.732 262.971 790.481 262.16C792.273 261.307 793.766 260.048 794.961 258.384L797.329 260.112C795.964 262.117 794.172 263.653 791.953 264.72C789.777 265.744 787.345 266.256 784.657 266.256ZM834.57 250.064H805.83C805.92 252.667 806.58 254.992 807.82 257.04C809.06 259.045 810.72 260.603 812.81 261.712C814.94 262.821 817.33 263.376 819.98 263.376C822.15 263.376 824.16 262.992 825.99 262.224C827.87 261.413 829.43 260.24 830.67 258.704L832.52 260.816C831.07 262.565 829.24 263.909 827.02 264.848C824.84 265.787 822.47 266.256 819.91 266.256C816.59 266.256 813.62 265.531 811.02 264.08C808.42 262.629 806.37 260.624 804.87 258.064C803.424 255.504 802.699 252.581 802.699 249.296C802.699 246.053 803.381 243.152 804.75 240.592C806.15 237.989 808.07 235.963 810.51 234.512C812.94 233.061 815.67 232.336 818.7 232.336C821.73 232.336 824.44 233.061 826.83 234.512C829.26 235.92 831.16 237.904 832.52 240.464C833.93 243.024 834.63 245.925 834.63 249.168L834.57 250.064ZM818.7 235.152C816.35 235.152 814.24 235.685 812.36 236.752C810.49 237.776 808.97 239.248 807.82 241.168C806.71 243.045 806.07 245.179 805.9 247.568H831.5C831.37 245.179 830.73 243.045 829.58 241.168C828.43 239.291 826.91 237.819 825.03 236.752C823.16 235.685 821.05 235.152 818.7 235.152Z" fill="#1596FA"/>
<path d="M91.945 25.757H0V9H256L202.499 25.757H110.553V264H91.945V25.757Z" fill="#1596FA"/>
<path d="M258.863 266C233.73 266 211.037 260.407 190.784 249.22C170.776 238.033 154.915 222.59 143.203 202.892C131.734 183.193 126 161.062 126 136.5C126 111.938 131.734 89.807 143.203 70.108C154.915 50.41 170.776 34.967 190.784 23.78C211.037 12.593 233.73 7 258.863 7C277.407 7 294.488 10.04 310.105 16.12C325.721 21.956 339.02 30.711 350 42.385L338.288 54.423C317.791 34.238 291.56 24.145 259.595 24.145C238.122 24.145 218.601 29.009 201.033 38.737C183.464 48.464 169.678 61.962 159.673 79.228C149.669 96.252 144.667 115.342 144.667 136.5C144.667 157.658 149.669 176.87 159.673 194.137C169.678 211.16 183.464 224.536 201.033 234.263C218.601 243.991 238.122 248.855 259.595 248.855C291.316 248.855 317.547 238.641 338.288 218.213L350 230.251C339.02 241.924 325.599 250.8 309.739 256.88C294.122 262.96 277.163 266 258.863 266Z" fill="#1596FA"/>
<path opacity="0.989" fill-rule="evenodd" clip-rule="evenodd" d="M390.955 145.354C391.212 145.642 391.547 145.776 391.96 145.756C391.96 145.891 392.027 145.957 392.161 145.957C392.764 146.426 393.3 146.962 393.769 147.566C394.404 148.983 394.538 150.457 394.171 151.988C393.839 152.517 393.504 153.052 393.166 153.596C393.032 153.596 392.965 153.663 392.965 153.797C392.831 153.797 392.764 153.864 392.764 153.998C392.63 153.998 392.563 154.065 392.563 154.199C392.429 154.199 392.362 154.266 392.362 154.4C392.228 154.4 392.161 154.467 392.161 154.601C392.027 154.601 391.96 154.668 391.96 154.802C391.826 154.802 391.759 154.869 391.759 155.003C391.625 155.003 391.558 155.07 391.558 155.204C391.424 155.204 391.357 155.271 391.357 155.405C391.223 155.405 391.156 155.472 391.156 155.606C391.022 155.606 390.955 155.673 390.955 155.807C390.821 155.807 390.754 155.874 390.754 156.008C390.62 156.008 390.553 156.075 390.553 156.209C390.419 156.209 390.352 156.276 390.352 156.41C390.218 156.41 390.151 156.477 390.151 156.611C390.017 156.611 389.95 156.678 389.95 156.812C389.816 156.812 389.749 156.879 389.749 157.013C389.615 157.013 389.548 157.08 389.548 157.214C389.414 157.214 389.347 157.281 389.347 157.415C389.213 157.415 389.146 157.482 389.146 157.616C389.012 157.616 388.945 157.683 388.945 157.817C388.811 157.817 388.744 157.884 388.744 158.018C388.61 158.018 388.543 158.085 388.543 158.219C388.409 158.219 388.342 158.286 388.342 158.42C388.208 158.42 388.141 158.487 388.141 158.621C388.007 158.621 387.94 158.688 387.94 158.822C387.806 158.822 387.739 158.889 387.739 159.023C387.605 159.023 387.538 159.09 387.538 159.224C387.404 159.224 387.337 159.291 387.337 159.425C387.203 159.425 387.136 159.492 387.136 159.626C387.002 159.626 386.935 159.693 386.935 159.827C386.801 159.827 386.734 159.894 386.734 160.028C386.6 160.028 386.533 160.095 386.533 160.229C386.399 160.229 386.332 160.296 386.332 160.43C386.198 160.43 386.131 160.497 386.131 160.631C385.997 160.631 385.93 160.698 385.93 160.832C385.796 160.832 385.729 160.899 385.729 161.033C385.595 161.033 385.528 161.1 385.528 161.234C385.394 161.234 385.327 161.301 385.327 161.435C385.193 161.435 385.126 161.502 385.126 161.636C384.992 161.636 384.925 161.703 384.925 161.837C384.791 161.837 384.724 161.904 384.724 162.038C384.59 162.038 384.523 162.105 384.523 162.239C384.389 162.239 384.322 162.306 384.322 162.44C384.188 162.44 384.121 162.507 384.121 162.641C383.987 162.641 383.92 162.708 383.92 162.842C383.786 162.842 383.719 162.909 383.719 163.043C383.585 163.043 383.518 163.11 383.518 163.244C383.384 163.244 383.317 163.311 383.317 163.445C383.183 163.445 383.116 163.512 383.116 163.646C382.982 163.646 382.915 163.713 382.915 163.847C382.781 163.847 382.714 163.914 382.714 164.048C382.58 164.048 382.513 164.115 382.513 164.249C382.379 164.249 382.312 164.316 382.312 164.45C382.178 164.45 382.111 164.517 382.111 164.651C381.977 164.651 381.91 164.718 381.91 164.852C381.776 164.852 381.709 164.919 381.709 165.053C381.575 165.053 381.508 165.12 381.508 165.254C381.374 165.254 381.307 165.321 381.307 165.455C381.173 165.455 381.106 165.522 381.106 165.656C380.972 165.656 380.905 165.723 380.905 165.857C380.771 165.857 380.704 165.924 380.704 166.058C380.57 166.058 380.503 166.125 380.503 166.259C380.369 166.259 380.302 166.326 380.302 166.46C380.168 166.46 380.101 166.527 380.101 166.661C379.967 166.661 379.9 166.728 379.9 166.862C379.766 166.862 379.699 166.929 379.699 167.063C379.565 167.063 379.498 167.13 379.498 167.264C379.363 167.264 379.297 167.331 379.297 167.465C379.162 167.465 379.096 167.532 379.096 167.666C378.961 167.666 378.895 167.733 378.895 167.867C378.76 167.867 378.694 167.934 378.694 168.068C378.559 168.068 378.493 168.135 378.493 168.269C378.358 168.269 378.292 168.336 378.292 168.47C378.157 168.47 378.091 168.537 378.091 168.671C377.956 168.671 377.89 168.738 377.89 168.872C377.755 168.872 377.688 168.939 377.688 169.073C377.554 169.073 377.487 169.14 377.487 169.274C377.353 169.274 377.286 169.341 377.286 169.475C377.152 169.475 377.085 169.542 377.085 169.676C376.951 169.676 376.884 169.743 376.884 169.877C376.75 169.877 376.683 169.944 376.683 170.078C376.549 170.078 376.482 170.145 376.482 170.279C376.348 170.279 376.281 170.346 376.281 170.48C376.147 170.48 376.08 170.547 376.08 170.681C375.946 170.681 375.879 170.748 375.879 170.882C375.745 170.882 375.678 170.949 375.678 171.083C375.544 171.083 375.477 171.15 375.477 171.284C375.343 171.284 375.276 171.351 375.276 171.485C375.142 171.485 375.075 171.552 375.075 171.686C374.941 171.686 374.874 171.753 374.874 171.887C374.74 171.887 374.673 171.954 374.673 172.088C374.539 172.088 374.472 172.155 374.472 172.289C374.338 172.289 374.271 172.356 374.271 172.49C374.137 172.49 374.07 172.557 374.07 172.691C373.936 172.691 373.869 172.758 373.869 172.892C373.735 172.892 373.668 172.959 373.668 173.093C373.534 173.093 373.467 173.16 373.467 173.294C373.333 173.294 373.266 173.361 373.266 173.495C373.132 173.495 373.065 173.562 373.065 173.696C372.931 173.696 372.864 173.763 372.864 173.897C372.73 173.897 372.663 173.964 372.663 174.098C372.529 174.098 372.462 174.165 372.462 174.299C372.328 174.299 372.261 174.366 372.261 174.5C372.127 174.5 372.06 174.567 372.06 174.701C371.926 174.701 371.859 174.768 371.859 174.902C371.725 174.902 371.658 174.969 371.658 175.103C371.524 175.103 371.457 175.17 371.457 175.304C371.189 175.371 371.189 175.439 371.457 175.505C378.493 182.675 385.595 189.777 392.764 196.812C392.831 197.08 392.898 197.08 392.965 196.812C393.099 196.812 393.166 196.745 393.166 196.611C400.469 189.442 407.705 182.206 414.875 174.902C415.182 174.917 415.383 174.783 415.478 174.5C417.225 173.706 418.967 173.706 420.704 174.5C421.307 174.969 421.843 175.505 422.312 176.108C422.312 176.243 422.379 176.31 422.513 176.31C422.493 176.722 422.627 177.057 422.915 177.315C423.192 179.107 422.79 180.715 421.709 182.139C421.575 182.139 421.508 182.206 421.508 182.34C421.374 182.34 421.307 182.407 421.307 182.541C421.173 182.541 421.106 182.608 421.106 182.742C420.972 182.742 420.905 182.809 420.905 182.943C420.771 182.943 420.704 183.01 420.704 183.144C420.57 183.144 420.503 183.211 420.503 183.345C420.369 183.345 420.302 183.412 420.302 183.546C420.168 183.546 420.101 183.613 420.101 183.747C419.967 183.747 419.9 183.814 419.9 183.948C419.766 183.948 419.699 184.015 419.699 184.149C419.565 184.149 419.498 184.216 419.498 184.35C419.364 184.35 419.297 184.417 419.297 184.551C419.163 184.551 419.096 184.618 419.096 184.752C418.962 184.752 418.895 184.819 418.895 184.953C418.761 184.953 418.694 185.02 418.694 185.154C418.56 185.154 418.493 185.221 418.493 185.355C418.359 185.355 418.292 185.422 418.292 185.556C418.158 185.556 418.091 185.623 418.091 185.757C417.957 185.757 417.89 185.824 417.89 185.958C417.756 185.958 417.689 186.025 417.689 186.159C417.555 186.159 417.488 186.226 417.488 186.36C417.354 186.36 417.287 186.427 417.287 186.561C417.153 186.561 417.086 186.628 417.086 186.762C416.952 186.762 416.885 186.829 416.885 186.963C416.751 186.963 416.684 187.03 416.684 187.164C416.55 187.164 416.483 187.231 416.483 187.365C416.349 187.365 416.282 187.432 416.282 187.566C416.148 187.566 416.081 187.633 416.081 187.767C415.947 187.767 415.88 187.834 415.88 187.968C415.746 187.968 415.679 188.035 415.679 188.169C415.545 188.169 415.478 188.236 415.478 188.37C415.344 188.37 415.277 188.437 415.277 188.571C415.143 188.571 415.076 188.638 415.076 188.772C414.942 188.772 414.875 188.839 414.875 188.973C414.741 188.973 414.674 189.04 414.674 189.174C414.54 189.174 414.473 189.241 414.473 189.375C414.339 189.375 414.272 189.442 414.272 189.576C414.138 189.576 414.071 189.643 414.071 189.777C413.937 189.777 413.87 189.844 413.87 189.978C413.736 189.978 413.669 190.045 413.669 190.179C413.535 190.179 413.468 190.246 413.468 190.38C413.334 190.38 413.267 190.447 413.267 190.581C413.133 190.581 413.066 190.648 413.066 190.782C412.932 190.782 412.865 190.849 412.865 190.983C412.731 190.983 412.664 191.05 412.664 191.184C412.53 191.184 412.463 191.251 412.463 191.385C412.329 191.385 412.262 191.452 412.262 191.586C412.128 191.586 412.061 191.653 412.061 191.787C411.927 191.787 411.86 191.854 411.86 191.988C411.726 191.988 411.659 192.055 411.659 192.189C411.525 192.189 411.458 192.256 411.458 192.39C411.324 192.39 411.257 192.457 411.257 192.591C411.123 192.591 411.056 192.658 411.056 192.792C410.922 192.792 410.855 192.859 410.855 192.993C410.721 192.993 410.654 193.06 410.654 193.194C410.52 193.194 410.453 193.261 410.453 193.395C410.319 193.395 410.252 193.462 410.252 193.596C410.118 193.596 410.051 193.663 410.051 193.797C409.917 193.797 409.85 193.864 409.85 193.998C409.716 193.998 409.649 194.065 409.649 194.199C409.515 194.199 409.448 194.266 409.448 194.4C409.314 194.4 409.247 194.467 409.247 194.601C409.113 194.601 409.046 194.668 409.046 194.802C408.912 194.802 408.845 194.869 408.845 195.003C408.711 195.003 408.644 195.07 408.644 195.204C408.51 195.204 408.443 195.271 408.443 195.405C408.309 195.405 408.242 195.472 408.242 195.606C408.107 195.606 408.041 195.673 408.041 195.807C407.906 195.807 407.84 195.874 407.84 196.008C407.705 196.008 407.639 196.075 407.639 196.209C407.504 196.209 407.438 196.276 407.438 196.41C407.303 196.41 407.237 196.477 407.237 196.611C407.102 196.611 407.036 196.678 407.036 196.812C406.901 196.812 406.835 196.879 406.835 197.013C406.7 197.013 406.634 197.08 406.634 197.214C406.499 197.214 406.433 197.281 406.433 197.415C406.298 197.415 406.231 197.482 406.231 197.616C406.097 197.616 406.03 197.683 406.03 197.817C405.896 197.817 405.829 197.884 405.829 198.018C405.695 198.018 405.628 198.085 405.628 198.219C405.494 198.219 405.427 198.286 405.427 198.42C405.293 198.42 405.226 198.487 405.226 198.621C405.092 198.621 405.025 198.688 405.025 198.822C404.891 198.822 404.824 198.889 404.824 199.023C404.69 199.023 404.623 199.09 404.623 199.224C404.489 199.224 404.422 199.291 404.422 199.425C404.288 199.425 404.221 199.492 404.221 199.626C404.087 199.626 404.02 199.693 404.02 199.827C403.886 199.827 403.819 199.894 403.819 200.028C403.685 200.028 403.618 200.095 403.618 200.229C403.484 200.229 403.417 200.296 403.417 200.43C403.283 200.43 403.216 200.497 403.216 200.631C403.082 200.631 403.015 200.698 403.015 200.832C402.881 200.832 402.814 200.899 402.814 201.033C402.68 201.033 402.613 201.1 402.613 201.234C402.479 201.234 402.412 201.301 402.412 201.435C402.278 201.435 402.211 201.502 402.211 201.636C402.077 201.636 402.01 201.703 402.01 201.837C401.876 201.837 401.809 201.904 401.809 202.038C401.675 202.038 401.608 202.105 401.608 202.239C401.474 202.239 401.407 202.306 401.407 202.44C401.273 202.44 401.206 202.507 401.206 202.641C401.072 202.641 401.005 202.708 401.005 202.842C400.871 202.842 400.804 202.909 400.804 203.043C400.67 203.043 400.603 203.11 400.603 203.244C400.469 203.244 400.402 203.311 400.402 203.445C400.268 203.445 400.201 203.512 400.201 203.646C400.067 203.646 400 203.713 400 203.847C399.732 203.914 399.732 203.982 400 204.048C402.338 206.487 404.717 208.899 407.136 211.285C407.23 211.501 407.197 211.702 407.036 211.888C406.901 211.888 406.835 211.955 406.835 212.089C406.7 212.089 406.634 212.156 406.634 212.29C406.499 212.29 406.433 212.357 406.433 212.491C406.298 212.491 406.231 212.558 406.231 212.692C406.097 212.692 406.03 212.759 406.03 212.893C405.896 212.893 405.829 212.96 405.829 213.094C405.695 213.094 405.628 213.161 405.628 213.295C405.494 213.295 405.427 213.362 405.427 213.496C405.293 213.496 405.226 213.563 405.226 213.697C405.092 213.697 405.025 213.764 405.025 213.898C404.891 213.898 404.824 213.965 404.824 214.099C404.69 214.099 404.623 214.166 404.623 214.3C404.489 214.3 404.422 214.367 404.422 214.501C404.288 214.501 404.221 214.568 404.221 214.702C404.087 214.702 404.02 214.769 404.02 214.903C403.886 214.903 403.819 214.97 403.819 215.104C403.685 215.104 403.618 215.171 403.618 215.305C403.484 215.305 403.417 215.372 403.417 215.506C403.283 215.506 403.216 215.573 403.216 215.707C403.082 215.707 403.015 215.774 403.015 215.908C402.881 215.908 402.814 215.975 402.814 216.109C402.68 216.109 402.613 216.176 402.613 216.31C402.479 216.31 402.412 216.377 402.412 216.511C402.278 216.511 402.211 216.578 402.211 216.712C402.077 216.712 402.01 216.779 402.01 216.913C401.876 216.913 401.809 216.98 401.809 217.114C401.675 217.114 401.608 217.181 401.608 217.315C401.474 217.315 401.407 217.382 401.407 217.516C401.273 217.516 401.206 217.583 401.206 217.717C401.072 217.717 401.005 217.784 401.005 217.918C400.871 217.918 400.804 217.985 400.804 218.119C400.67 218.119 400.603 218.186 400.603 218.32C400.469 218.32 400.402 218.387 400.402 218.521C400.268 218.521 400.201 218.588 400.201 218.722C400.067 218.722 400 218.789 400 218.923C399.866 218.923 399.799 218.99 399.799 219.124C399.665 219.124 399.598 219.191 399.598 219.325C399.464 219.325 399.397 219.392 399.397 219.526C399.263 219.526 399.196 219.593 399.196 219.727C399.062 219.727 398.995 219.794 398.995 219.928C398.861 219.928 398.794 219.995 398.794 220.129C398.66 220.129 398.593 220.196 398.593 220.33C398.459 220.33 398.392 220.397 398.392 220.531C398.258 220.531 398.191 220.598 398.191 220.732C398.057 220.732 397.99 220.799 397.99 220.933C397.856 220.933 397.789 221 397.789 221.134C397.655 221.134 397.588 221.201 397.588 221.335C397.454 221.335 397.387 221.402 397.387 221.536C397.253 221.536 397.186 221.603 397.186 221.737C397.052 221.737 396.985 221.804 396.985 221.938C396.851 221.938 396.784 222.005 396.784 222.139C396.65 222.139 396.583 222.206 396.583 222.34C396.449 222.34 396.382 222.407 396.382 222.541C396.248 222.541 396.181 222.608 396.181 222.742C396.047 222.742 395.98 222.809 395.98 222.943C395.846 222.943 395.779 223.01 395.779 223.144C395.645 223.144 395.578 223.211 395.578 223.345C395.444 223.345 395.377 223.412 395.377 223.546C395.243 223.546 395.176 223.613 395.176 223.747C395.042 223.747 394.975 223.814 394.975 223.948C394.841 223.948 394.774 224.015 394.774 224.149C394.64 224.149 394.573 224.216 394.573 224.35C394.439 224.35 394.372 224.417 394.372 224.551C394.238 224.551 394.171 224.618 394.171 224.752C394.037 224.752 393.97 224.819 393.97 224.953C393.836 224.953 393.769 225.02 393.769 225.154C393.635 225.154 393.568 225.221 393.568 225.355C393.434 225.355 393.367 225.422 393.367 225.556C393.233 225.556 393.166 225.623 393.166 225.757C393.032 225.757 392.965 225.824 392.965 225.958C392.831 225.958 392.764 226.025 392.764 226.159C392.311 226.285 391.976 226.553 391.759 226.963C391.625 226.963 391.558 227.03 391.558 227.164C391.424 227.164 391.357 227.231 391.357 227.365C390.759 227.696 390.223 228.098 389.749 228.571C389.615 228.571 389.548 228.638 389.548 228.772C389.165 228.82 388.897 229.021 388.744 229.375C388.544 229.341 388.411 229.408 388.342 229.576C388.208 229.576 388.141 229.643 388.141 229.777C387.941 229.743 387.808 229.81 387.739 229.978C387.35 230.101 387.015 230.302 386.734 230.581C386.345 230.704 386.01 230.905 385.729 231.184C385.529 231.15 385.396 231.217 385.327 231.385C385.127 231.351 384.993 231.418 384.925 231.586C384.725 231.552 384.591 231.619 384.523 231.787C384.323 231.753 384.189 231.82 384.121 231.988C383.921 231.954 383.787 232.021 383.719 232.189C383.519 232.155 383.385 232.222 383.317 232.39C383.117 232.356 382.983 232.423 382.915 232.591C381.984 232.812 381.112 233.147 380.302 233.596C380.042 233.549 379.841 233.616 379.699 233.797C379.439 233.75 379.238 233.817 379.096 233.999C378.306 234.084 377.569 234.285 376.884 234.602C370.318 235.881 363.819 235.613 357.387 233.797C356.724 233.375 355.987 233.107 355.176 232.993C355.107 232.825 354.973 232.758 354.774 232.792C354.516 232.505 354.181 232.371 353.769 232.39C353.029 231.886 352.225 231.484 351.357 231.184C351.262 230.902 351.061 230.768 350.754 230.782C350.685 230.614 350.551 230.547 350.352 230.581C350.256 230.299 350.055 230.165 349.749 230.179C349.68 230.011 349.546 229.944 349.347 229.978C349.347 229.844 349.151 229.535 349.017 229.535C348.937 229.329 338.866 219.384 349.017 229.535L327.638 244.451C320.804 235.406 325.159 245.255 325.025 245.255C325.025 245.121 323.015 237.617 326.03 243.647C321.407 237.818 325.36 244.25 325.226 244.25C320.804 240.833 325.963 244.652 325.829 244.652C325.829 244.518 324.422 242.441 326.03 246.26C324.422 242.642 326.449 242.039 327.354 244.853C326.704 242.843 325.997 245.858 325.863 245.858C325.863 245.724 326.574 244.049 326.775 246.26C326.373 243.245 325.762 246.863 325.628 246.863C325.628 246.729 326.365 248.27 326.231 248.27C326.231 248.136 326.164 248.069 326.03 248.069C326.03 247.935 325.963 247.868 325.829 247.868C325.829 247.734 325.762 247.667 325.628 247.667C325.628 247.533 325.561 247.466 325.427 247.466C325.427 247.332 325.36 247.265 325.226 247.265C325.226 247.131 325.159 247.064 325.025 247.064C325.025 246.93 324.958 246.863 324.824 246.863C324.824 246.729 324.757 246.662 324.623 246.662C324.623 246.528 324.556 246.461 324.422 246.461C324.422 246.327 324.355 246.26 324.221 246.26C324.221 246.126 324.154 246.059 324.02 246.059C324.02 245.925 323.953 245.858 323.819 245.858C323.819 245.724 323.752 245.657 323.618 245.657C323.618 245.523 323.551 245.456 323.417 245.456C323.417 245.322 323.35 245.255 323.216 245.255C323.216 245.121 323.149 245.054 323.015 245.054C323.015 244.92 322.948 244.853 322.814 244.853C322.814 244.719 322.747 244.652 322.613 244.652C322.613 244.518 322.546 244.451 322.412 244.451C322.412 244.317 322.345 244.25 322.211 244.25C322.211 244.116 322.144 244.049 322.01 244.049C322.01 243.915 321.943 243.848 321.809 243.848C321.809 243.714 321.742 243.647 321.608 243.647C321.608 243.513 321.541 243.446 321.407 243.446C321.407 243.312 321.34 243.245 321.206 243.245C321.206 243.111 321.139 243.044 321.005 243.044C321.005 242.91 320.938 242.843 320.804 242.843C320.804 242.709 320.737 242.642 320.603 242.642C320.603 242.508 320.536 242.441 320.402 242.441C320.402 242.307 320.335 242.24 320.2 242.24C320.2 242.106 320.133 242.039 319.999 242.039C319.999 241.905 319.932 241.838 319.798 241.838C319.798 241.704 319.731 241.637 319.597 241.637C319.597 241.503 319.53 241.436 319.396 241.436C319.396 241.302 319.329 241.235 319.195 241.235C319.195 241.101 319.128 241.034 318.994 241.034C318.994 240.9 318.927 240.833 318.793 240.833C318.793 240.699 318.726 240.632 318.592 240.632C318.592 240.498 318.525 240.431 318.391 240.431C318.391 240.297 318.324 240.23 318.19 240.23C318.19 240.096 318.19 239.828 318.19 239.828C325.628 241.034 349.017 229.535 349.017 229.535C349.165 229.782 338.698 219.204 338.492 219.124C338.492 218.99 338.425 218.923 338.291 218.923C338.326 218.724 338.259 218.59 338.09 218.521C337.967 218.132 337.766 217.797 337.487 217.516C333.029 209.289 331.756 200.579 333.668 191.385C334.051 190.501 334.319 189.563 334.472 188.571C334.654 188.428 334.721 188.227 334.673 187.968C334.855 187.825 334.922 187.624 334.874 187.365C335.162 187.108 335.296 186.773 335.276 186.36C335.564 186.103 335.698 185.767 335.678 185.355C335.847 185.286 335.914 185.152 335.879 184.953C336.048 184.884 336.115 184.75 336.08 184.551C336.249 184.482 336.316 184.348 336.281 184.149C336.584 183.811 336.785 183.409 336.884 182.943C337.202 182.508 337.47 182.039 337.688 181.536C337.967 181.254 338.168 180.919 338.291 180.531C338.571 180.249 338.772 179.914 338.894 179.526C339.028 179.526 339.095 179.459 339.095 179.325C339.378 179.23 339.512 179.029 339.497 178.722C339.631 178.722 339.698 178.655 339.698 178.521C339.879 178.362 340.013 178.161 340.1 177.918C340.234 177.918 340.301 177.851 340.301 177.717C340.597 177.528 340.798 177.26 340.904 176.913C341.038 176.913 341.105 176.846 341.105 176.712C341.239 176.712 341.306 176.645 341.306 176.511C341.836 175.913 342.373 175.31 342.914 174.701C343.048 174.701 343.115 174.635 343.115 174.5C343.249 174.5 343.316 174.434 343.316 174.299C343.45 174.299 343.517 174.232 343.517 174.098C343.651 174.098 343.718 174.031 343.718 173.897C343.852 173.897 343.919 173.83 343.919 173.696C344.053 173.696 344.12 173.629 344.12 173.495C344.254 173.495 344.321 173.428 344.321 173.294C344.455 173.294 344.522 173.227 344.522 173.093C344.656 173.093 344.723 173.026 344.723 172.892C344.857 172.892 344.924 172.825 344.924 172.691C345.058 172.691 345.125 172.624 345.125 172.49C345.259 172.49 345.326 172.423 345.326 172.289C345.46 172.289 345.527 172.222 345.527 172.088C345.661 172.088 345.728 172.021 345.728 171.887C345.862 171.887 345.929 171.82 345.929 171.686C346.063 171.686 346.13 171.619 346.13 171.485C346.264 171.485 346.331 171.418 346.331 171.284C346.465 171.284 346.532 171.217 346.532 171.083C346.666 171.083 346.733 171.016 346.733 170.882C346.867 170.882 346.934 170.815 346.934 170.681C347.069 170.681 347.135 170.614 347.135 170.48C347.27 170.48 347.336 170.413 347.336 170.279C347.471 170.279 347.537 170.212 347.537 170.078C347.672 170.078 347.738 170.011 347.738 169.877C347.873 169.877 347.939 169.81 347.939 169.676C348.074 169.676 348.14 169.609 348.14 169.475C348.275 169.475 348.341 169.408 348.341 169.274C348.476 169.274 348.542 169.207 348.542 169.073C348.677 169.073 348.743 169.006 348.743 168.872C348.878 168.872 348.945 168.805 348.945 168.671C349.079 168.671 349.146 168.604 349.146 168.47C349.28 168.47 349.347 168.403 349.347 168.269C349.481 168.269 349.548 168.202 349.548 168.068C349.682 168.068 349.749 168.001 349.749 167.867C349.883 167.867 349.95 167.8 349.95 167.666C350.084 167.666 350.151 167.599 350.151 167.465C350.285 167.465 350.352 167.398 350.352 167.264C350.486 167.264 350.553 167.197 350.553 167.063C350.687 167.063 350.754 166.996 350.754 166.862C350.888 166.862 350.955 166.795 350.955 166.661C351.089 166.661 351.156 166.594 351.156 166.46C351.29 166.46 351.357 166.393 351.357 166.259C351.491 166.259 351.558 166.192 351.558 166.058C351.692 166.058 351.759 165.991 351.759 165.857C351.893 165.857 351.96 165.79 351.96 165.656C352.094 165.656 352.161 165.589 352.161 165.455C352.295 165.455 352.362 165.388 352.362 165.254C352.496 165.254 352.563 165.187 352.563 165.053C352.697 165.053 352.764 164.986 352.764 164.852C352.898 164.852 352.965 164.785 352.965 164.651C353.099 164.651 353.166 164.584 353.166 164.45C353.3 164.45 353.367 164.383 353.367 164.249C353.501 164.249 353.568 164.182 353.568 164.048C353.702 164.048 353.769 163.981 353.769 163.847C353.903 163.847 353.97 163.78 353.97 163.646C354.104 163.646 354.171 163.579 354.171 163.445C354.305 163.445 354.372 163.378 354.372 163.244C354.506 163.244 354.573 163.177 354.573 163.043C354.707 163.043 354.774 162.976 354.774 162.842C354.908 162.842 354.975 162.775 354.975 162.641C355.109 162.641 355.176 162.574 355.176 162.44C355.31 162.44 355.377 162.373 355.377 162.239C355.511 162.239 355.578 162.172 355.578 162.038C355.712 162.038 355.779 161.971 355.779 161.837C355.913 161.837 355.98 161.77 355.98 161.636C356.114 161.636 356.181 161.569 356.181 161.435C356.315 161.435 356.382 161.368 356.382 161.234C356.567 161.073 356.768 161.039 356.985 161.133C359.37 163.553 361.782 165.931 364.221 168.269C364.288 168.537 364.355 168.537 364.422 168.269C364.556 168.269 364.623 168.202 364.623 168.068C371.886 160.906 379.122 153.703 386.332 146.46C387.713 145.468 389.254 145.1 390.955 145.354ZM415.076 174.5C415.21 174.5 415.344 174.5 415.478 174.5C415.383 174.783 415.182 174.917 414.875 174.902C414.942 174.768 415.009 174.635 415.076 174.5ZM371.457 175.505C371.591 175.505 371.725 175.505 371.859 175.505C378.76 182.541 385.729 189.509 392.764 196.41C392.764 196.544 392.764 196.678 392.764 196.812C385.595 189.777 378.493 182.675 371.457 175.505ZM349.749 230.179C350.055 230.165 350.256 230.299 350.352 230.581C350.217 230.581 350.084 230.581 349.95 230.581C349.883 230.447 349.815 230.313 349.749 230.179ZM350.754 230.782C351.061 230.768 351.262 230.902 351.357 231.184C351.223 231.184 351.089 231.184 350.955 231.184C350.888 231.05 350.82 230.916 350.754 230.782ZM354.774 232.792C354.516 232.505 354.181 232.371 353.769 232.39C354.026 232.678 354.361 232.812 354.774 232.792ZM357.387 233.797C356.724 233.375 355.987 233.107 355.176 232.993C355.838 233.416 356.575 233.684 357.387 233.797Z" fill="#1596FA"/>
</svg>
