<svg width="815" height="192" viewBox="0 0 815 192" fill="none" xmlns="http://www.w3.org/2000/svg">
<path d="M330.551 66.2227H314.031V58.397H356.327V66.2227H339.807V108.197H330.551V66.2227ZM400.656 100.443V108.197H363.274V58.397H399.66V66.1516H372.531V79.0997H396.598V86.7121H372.531V100.443H400.656ZM433.837 108.909C428.805 108.909 424.248 107.818 420.166 105.636C416.131 103.407 412.95 100.348 410.624 96.4587C408.346 92.5695 407.207 88.1824 407.207 83.2972C407.207 78.412 408.37 74.0248 410.696 70.1356C413.022 66.2465 416.202 63.211 420.237 61.0293C424.319 58.8001 428.877 57.6855 433.908 57.6855C437.991 57.6855 441.717 58.3969 445.088 59.8198C448.458 61.2427 451.306 63.3059 453.632 66.0093L447.651 71.6296C444.043 67.7405 439.605 65.7959 434.336 65.7959C430.918 65.7959 427.856 66.5548 425.15 68.0725C422.444 69.5428 420.332 71.6059 418.813 74.262C417.294 76.918 416.534 79.9297 416.534 83.2972C416.534 86.6646 417.294 89.6764 418.813 92.3324C420.332 94.9884 422.444 97.0753 425.15 98.593C427.856 100.063 430.918 100.798 434.336 100.798C439.605 100.798 444.043 98.8301 447.651 94.8935L453.632 100.585C451.306 103.289 448.434 105.352 445.016 106.775C441.646 108.197 437.92 108.909 433.837 108.909ZM506.791 58.397V108.197H497.534V86.8544H471.758V108.197H462.502V58.397H471.758V78.9574H497.534V58.397H506.791ZM543.217 108.909C538.186 108.909 533.629 107.818 529.546 105.636C525.511 103.407 522.331 100.348 520.005 96.4587C517.726 92.5695 516.587 88.1824 516.587 83.2972C516.587 78.412 517.75 74.0248 520.076 70.1356C522.402 66.2465 525.582 63.211 529.617 61.0293C533.7 58.8001 538.257 57.6855 543.289 57.6855C547.371 57.6855 551.097 58.3969 554.468 59.8198C557.838 61.2427 560.686 63.3059 563.012 66.0093L557.031 71.6296C553.424 67.7405 548.985 65.7959 543.716 65.7959C540.298 65.7959 537.236 66.5548 534.53 68.0725C531.825 69.5428 529.712 71.6059 528.193 74.262C526.674 76.918 525.915 79.9297 525.915 83.2972C525.915 86.6646 526.674 89.6764 528.193 92.3324C529.712 94.9884 531.825 97.0753 534.53 98.593C537.236 100.063 540.298 100.798 543.716 100.798C548.985 100.798 553.424 98.8301 557.031 94.8935L563.012 100.585C560.686 103.289 557.814 105.352 554.397 106.775C551.026 108.197 547.3 108.909 543.217 108.909ZM594.123 108.909C589.044 108.909 584.463 107.818 580.38 105.636C576.298 103.407 573.094 100.348 570.768 96.4587C568.442 92.5221 567.279 88.1349 567.279 83.2972C567.279 78.4594 568.442 74.096 570.768 70.2068C573.094 66.2702 576.298 63.211 580.38 61.0293C584.463 58.8001 589.044 57.6855 594.123 57.6855C599.204 57.6855 603.78 58.8001 607.867 61.0293C611.946 63.211 615.151 66.2465 617.48 70.1356C619.801 74.0248 620.966 78.412 620.966 83.2972C620.966 88.1824 619.801 92.5695 617.48 96.4587C615.151 100.348 611.946 103.407 607.867 105.636C603.78 107.818 599.204 108.909 594.123 108.909ZM594.123 100.798C597.446 100.798 600.435 100.063 603.098 98.593C605.753 97.0753 607.845 94.9884 609.358 92.3324C610.878 89.6289 611.642 86.6172 611.642 83.2972C611.642 79.9772 610.878 76.9891 609.358 74.3331C607.845 71.6297 605.753 69.5428 603.098 68.0725C600.435 66.5548 597.446 65.7959 594.123 65.7959C590.8 65.7959 587.81 66.5548 585.151 68.0725C582.493 69.5428 580.404 71.6297 578.885 74.3331C577.366 76.9891 576.607 79.9772 576.607 83.2972C576.607 86.6172 577.366 89.6289 578.885 92.3324C580.404 94.9884 582.493 97.0753 585.151 98.593C587.81 100.063 590.8 100.798 594.123 100.798ZM663.392 108.197L653.208 93.613C652.778 93.6604 652.14 93.6841 651.287 93.6841H640.035V108.197H630.779V58.397H651.287C655.604 58.397 659.357 59.1084 662.539 60.5313C665.765 61.9541 668.235 63.9936 669.941 66.6496C671.647 69.3056 672.508 72.4596 672.508 76.1117C672.508 79.8586 671.581 83.0837 669.726 85.7872C667.924 88.4907 665.313 90.5064 661.894 91.8344L673.361 108.197H663.392ZM663.177 76.1117C663.177 72.9339 662.131 70.4913 660.047 68.7839C657.955 67.0764 654.892 66.2227 650.857 66.2227H640.035V86.0718H650.857C654.892 86.0718 657.955 85.218 660.047 83.5106C662.131 81.7557 663.177 79.2894 663.177 76.1117ZM692.274 66.2227H675.756V58.397H718.057V66.2227H701.531V108.197H692.274V66.2227ZM762.382 100.443V108.197H724.999V58.397H761.388V66.1516H734.256V79.0997H758.324V86.7121H734.256V100.443H762.382ZM803.547 108.197L790.018 89.2732L776.63 108.197H766.09L784.603 82.7992L767.091 58.397H777.557L790.3 76.1117L802.909 58.397H812.944L795.499 82.4434L814.228 108.197H803.547Z" fill="#1596FA"/>
<path d="M68.1972 13.9004H0V1.48218H189.88L150.197 13.9004H81.9991V190.457H68.1972V13.9004Z" fill="#1596FA"/>
<path d="M192.003 191.939C173.362 191.939 156.53 187.794 141.508 179.504C126.668 171.213 114.903 159.769 106.216 145.171C97.7094 130.573 93.4564 114.172 93.4564 95.9696C93.4564 77.7672 97.7094 61.3664 106.216 46.7679C114.903 32.1702 126.668 20.7257 141.508 12.4353C156.53 4.14487 173.362 0 192.003 0C205.758 0 218.427 2.25287 230.01 6.75862C241.593 11.0836 251.457 17.5717 259.601 26.223L250.914 35.1441C235.711 20.1855 216.255 12.7058 192.546 12.7058C176.619 12.7058 162.14 16.3104 149.11 23.5196C136.078 30.728 125.853 40.7311 118.432 53.5266C111.012 66.1427 107.302 80.2898 107.302 95.9696C107.302 111.649 111.012 125.887 118.432 138.683C125.853 151.298 136.078 161.211 149.11 168.42C162.14 175.629 176.619 179.233 192.546 179.233C216.074 179.233 235.53 171.664 250.914 156.525L259.601 165.446C251.457 174.097 241.502 180.675 229.739 185.18C218.155 189.686 205.577 191.939 192.003 191.939Z" fill="#1596FA"/>
<path opacity="0.989" fill-rule="evenodd" clip-rule="evenodd" d="M289.978 102.531C290.169 102.744 290.417 102.844 290.724 102.829C290.724 102.929 290.773 102.978 290.873 102.978C291.32 103.325 291.717 103.723 292.065 104.17C292.536 105.22 292.636 106.313 292.364 107.447C292.117 107.839 291.869 108.236 291.618 108.639C291.519 108.639 291.469 108.689 291.469 108.788C291.37 108.788 291.32 108.838 291.32 108.937C291.22 108.937 291.171 108.987 291.171 109.086C291.071 109.086 291.022 109.136 291.022 109.235C290.922 109.235 290.873 109.284 290.873 109.384C290.773 109.384 290.724 109.433 290.724 109.533C290.624 109.533 290.574 109.582 290.574 109.682C290.475 109.682 290.425 109.731 290.425 109.831C290.326 109.831 290.276 109.88 290.276 109.98C290.177 109.98 290.127 110.029 290.127 110.129C290.028 110.129 289.978 110.178 289.978 110.278C289.879 110.278 289.829 110.327 289.829 110.426C289.73 110.426 289.68 110.476 289.68 110.575C289.581 110.575 289.531 110.625 289.531 110.724C289.431 110.724 289.382 110.774 289.382 110.873C289.282 110.873 289.233 110.923 289.233 111.022C289.133 111.022 289.084 111.072 289.084 111.171C288.984 111.171 288.935 111.221 288.935 111.32C288.835 111.32 288.785 111.37 288.785 111.469C288.686 111.469 288.636 111.519 288.636 111.618C288.537 111.618 288.487 111.668 288.487 111.767C288.388 111.767 288.338 111.817 288.338 111.916C288.239 111.916 288.189 111.966 288.189 112.065C288.09 112.065 288.04 112.115 288.04 112.214C287.941 112.214 287.891 112.264 287.891 112.363C287.792 112.363 287.742 112.413 287.742 112.512C287.642 112.512 287.593 112.562 287.593 112.661C287.493 112.661 287.444 112.71 287.444 112.81C287.344 112.81 287.295 112.859 287.295 112.959C287.195 112.959 287.146 113.008 287.146 113.108C287.046 113.108 286.996 113.157 286.996 113.257C286.897 113.257 286.847 113.306 286.847 113.406C286.748 113.406 286.698 113.455 286.698 113.555C286.599 113.555 286.549 113.604 286.549 113.704C286.45 113.704 286.4 113.753 286.4 113.852C286.301 113.852 286.251 113.902 286.251 114.001C286.152 114.001 286.102 114.051 286.102 114.15C286.003 114.15 285.953 114.2 285.953 114.299C285.853 114.299 285.804 114.349 285.804 114.448C285.704 114.448 285.655 114.498 285.655 114.597C285.555 114.597 285.506 114.647 285.506 114.746C285.406 114.746 285.356 114.796 285.356 114.895C285.257 114.895 285.207 114.945 285.207 115.044C285.108 115.044 285.058 115.094 285.058 115.193C284.959 115.193 284.909 115.243 284.909 115.342C284.81 115.342 284.76 115.392 284.76 115.491C284.661 115.491 284.611 115.541 284.611 115.64C284.512 115.64 284.462 115.69 284.462 115.789C284.363 115.789 284.313 115.839 284.313 115.938C284.214 115.938 284.164 115.988 284.164 116.087C284.064 116.087 284.015 116.136 284.015 116.236C283.915 116.236 283.866 116.285 283.866 116.385C283.766 116.385 283.717 116.434 283.717 116.534C283.617 116.534 283.567 116.583 283.567 116.683C283.468 116.683 283.418 116.732 283.418 116.832C283.319 116.832 283.269 116.881 283.269 116.981C283.17 116.981 283.12 117.03 283.12 117.129C283.021 117.129 282.971 117.179 282.971 117.278C282.872 117.278 282.822 117.328 282.822 117.427C282.723 117.427 282.673 117.477 282.673 117.576C282.574 117.576 282.524 117.626 282.524 117.725C282.425 117.725 282.375 117.775 282.375 117.874C282.275 117.874 282.226 117.924 282.226 118.023C282.126 118.023 282.077 118.073 282.077 118.172C281.977 118.172 281.928 118.222 281.928 118.321C281.828 118.321 281.778 118.371 281.778 118.47C281.679 118.47 281.629 118.52 281.629 118.619C281.53 118.619 281.48 118.669 281.48 118.768C281.38 118.768 281.331 118.818 281.331 118.917C281.231 118.917 281.182 118.967 281.182 119.066C281.082 119.066 281.033 119.116 281.033 119.215C280.933 119.215 280.884 119.265 280.884 119.364C280.784 119.364 280.735 119.414 280.735 119.513C280.635 119.513 280.586 119.562 280.586 119.662C280.486 119.662 280.437 119.711 280.437 119.811C280.337 119.811 280.288 119.86 280.288 119.96C280.187 119.96 280.138 120.009 280.138 120.109C280.038 120.109 279.989 120.158 279.989 120.258C279.889 120.258 279.84 120.307 279.84 120.407C279.74 120.407 279.691 120.456 279.691 120.556C279.591 120.556 279.541 120.605 279.541 120.704C279.442 120.704 279.392 120.754 279.392 120.853C279.293 120.853 279.243 120.903 279.243 121.002C279.144 121.002 279.094 121.052 279.094 121.151C278.995 121.151 278.945 121.201 278.945 121.3C278.846 121.3 278.796 121.35 278.796 121.449C278.697 121.449 278.647 121.499 278.647 121.598C278.548 121.598 278.498 121.648 278.498 121.747C278.398 121.747 278.349 121.797 278.349 121.896C278.249 121.896 278.2 121.946 278.2 122.045C278.1 122.045 278.051 122.095 278.051 122.194C277.951 122.194 277.901 122.244 277.901 122.343C277.802 122.343 277.752 122.393 277.752 122.492C277.653 122.492 277.603 122.542 277.603 122.641C277.504 122.641 277.454 122.691 277.454 122.79C277.355 122.79 277.305 122.84 277.305 122.939C277.206 122.939 277.156 122.988 277.156 123.088C277.057 123.088 277.007 123.137 277.007 123.237C276.908 123.237 276.858 123.286 276.858 123.386C276.759 123.386 276.709 123.435 276.709 123.535C276.609 123.535 276.56 123.584 276.56 123.684C276.46 123.684 276.411 123.733 276.411 123.833C276.311 123.833 276.262 123.882 276.262 123.982C276.162 123.982 276.112 124.031 276.112 124.13C276.013 124.13 275.963 124.18 275.963 124.279C275.864 124.279 275.814 124.329 275.814 124.428C275.715 124.428 275.665 124.478 275.665 124.577C275.566 124.577 275.516 124.627 275.516 124.726C275.317 124.776 275.317 124.826 275.516 124.875C280.735 130.189 286.003 135.452 291.32 140.665C291.37 140.864 291.419 140.864 291.469 140.665C291.568 140.665 291.618 140.616 291.618 140.516C297.035 135.204 302.402 129.841 307.72 124.428C307.948 124.439 308.097 124.34 308.167 124.13C309.463 123.542 310.755 123.542 312.043 124.13C312.491 124.478 312.888 124.875 313.236 125.322C313.236 125.422 313.286 125.472 313.385 125.472C313.37 125.777 313.47 126.025 313.683 126.217C313.889 127.545 313.591 128.736 312.789 129.792C312.69 129.792 312.64 129.841 312.64 129.941C312.54 129.941 312.491 129.99 312.491 130.089C312.391 130.089 312.342 130.139 312.342 130.238C312.242 130.238 312.193 130.288 312.193 130.387C312.093 130.387 312.043 130.437 312.043 130.536C311.944 130.536 311.894 130.586 311.894 130.685C311.795 130.685 311.745 130.735 311.745 130.834C311.646 130.834 311.596 130.884 311.596 130.983C311.497 130.983 311.447 131.033 311.447 131.132C311.348 131.132 311.298 131.182 311.298 131.281C311.199 131.281 311.149 131.331 311.149 131.43C311.05 131.43 311 131.48 311 131.579C310.901 131.579 310.851 131.629 310.851 131.728C310.751 131.728 310.702 131.778 310.702 131.877C310.602 131.877 310.553 131.927 310.553 132.026C310.453 132.026 310.404 132.076 310.404 132.175C310.304 132.175 310.254 132.225 310.254 132.324C310.155 132.324 310.105 132.373 310.105 132.473C310.006 132.473 309.956 132.522 309.956 132.622C309.857 132.622 309.807 132.671 309.807 132.771C309.708 132.771 309.658 132.82 309.658 132.92C309.559 132.92 309.509 132.969 309.509 133.069C309.41 133.069 309.36 133.118 309.36 133.218C309.261 133.218 309.211 133.267 309.211 133.367C309.111 133.367 309.062 133.416 309.062 133.515C308.962 133.515 308.913 133.565 308.913 133.664C308.813 133.664 308.764 133.714 308.764 133.813C308.664 133.813 308.615 133.863 308.615 133.962C308.515 133.962 308.465 134.012 308.465 134.111C308.366 134.111 308.316 134.161 308.316 134.26C308.217 134.26 308.167 134.31 308.167 134.409C308.068 134.409 308.018 134.459 308.018 134.558C307.919 134.558 307.869 134.608 307.869 134.707C307.77 134.707 307.72 134.757 307.72 134.856C307.621 134.856 307.571 134.906 307.571 135.005C307.472 135.005 307.422 135.055 307.422 135.154C307.322 135.154 307.273 135.204 307.273 135.303C307.173 135.303 307.124 135.353 307.124 135.452C307.024 135.452 306.975 135.502 306.975 135.601C306.875 135.601 306.826 135.651 306.826 135.75C306.726 135.75 306.676 135.799 306.676 135.899C306.577 135.899 306.527 135.948 306.527 136.048C306.428 136.048 306.378 136.097 306.378 136.197C306.279 136.197 306.229 136.246 306.229 136.346C306.13 136.346 306.08 136.395 306.08 136.495C305.981 136.495 305.931 136.544 305.931 136.644C305.832 136.644 305.782 136.693 305.782 136.793C305.683 136.793 305.633 136.842 305.633 136.941C305.533 136.941 305.484 136.991 305.484 137.09C305.384 137.09 305.335 137.14 305.335 137.239C305.235 137.239 305.186 137.289 305.186 137.388C305.086 137.388 305.036 137.438 305.036 137.537C304.937 137.537 304.887 137.587 304.887 137.686C304.788 137.686 304.738 137.736 304.738 137.835C304.639 137.835 304.589 137.885 304.589 137.984C304.49 137.984 304.44 138.034 304.44 138.133C304.341 138.133 304.291 138.183 304.291 138.282C304.192 138.282 304.142 138.332 304.142 138.431C304.043 138.431 303.993 138.481 303.993 138.58C303.893 138.58 303.844 138.63 303.844 138.729C303.744 138.729 303.695 138.779 303.695 138.878C303.595 138.878 303.546 138.928 303.546 139.027C303.446 139.027 303.397 139.077 303.397 139.176C303.297 139.176 303.247 139.225 303.247 139.325C303.148 139.325 303.098 139.374 303.098 139.474C302.999 139.474 302.949 139.523 302.949 139.623C302.85 139.623 302.8 139.672 302.8 139.772C302.7 139.772 302.651 139.821 302.651 139.921C302.551 139.921 302.502 139.97 302.502 140.07C302.402 140.07 302.353 140.119 302.353 140.219C302.253 140.219 302.204 140.268 302.204 140.367C302.104 140.367 302.055 140.417 302.055 140.516C301.955 140.516 301.906 140.566 301.906 140.665C301.806 140.665 301.757 140.715 301.757 140.814C301.656 140.814 301.608 140.864 301.608 140.963C301.507 140.963 301.458 141.013 301.458 141.112C301.358 141.112 301.309 141.162 301.309 141.261C301.209 141.261 301.16 141.311 301.16 141.41C301.06 141.41 301.01 141.46 301.01 141.559C300.911 141.559 300.861 141.609 300.861 141.708C300.762 141.708 300.712 141.758 300.712 141.857C300.613 141.857 300.563 141.907 300.563 142.006C300.464 142.006 300.414 142.056 300.414 142.155C300.315 142.155 300.265 142.205 300.265 142.304C300.166 142.304 300.116 142.354 300.116 142.453C300.017 142.453 299.967 142.503 299.967 142.602C299.867 142.602 299.818 142.651 299.818 142.751C299.718 142.751 299.669 142.8 299.669 142.9C299.569 142.9 299.52 142.949 299.52 143.049C299.42 143.049 299.37 143.098 299.37 143.198C299.271 143.198 299.221 143.247 299.221 143.347C299.122 143.347 299.072 143.396 299.072 143.496C298.973 143.496 298.923 143.545 298.923 143.645C298.824 143.645 298.774 143.694 298.774 143.794C298.675 143.794 298.625 143.843 298.625 143.942C298.526 143.942 298.476 143.992 298.476 144.091C298.377 144.091 298.327 144.141 298.327 144.24C298.228 144.24 298.178 144.29 298.178 144.389C298.078 144.389 298.029 144.439 298.029 144.538C297.929 144.538 297.88 144.588 297.88 144.687C297.78 144.687 297.731 144.737 297.731 144.836C297.631 144.836 297.581 144.886 297.581 144.985C297.482 144.985 297.432 145.035 297.432 145.134C297.333 145.134 297.283 145.184 297.283 145.283C297.184 145.283 297.134 145.333 297.134 145.432C297.035 145.432 296.985 145.482 296.985 145.581C296.886 145.581 296.836 145.631 296.836 145.73C296.737 145.73 296.687 145.78 296.687 145.879C296.488 145.929 296.488 145.979 296.687 146.028C298.421 147.835 300.186 149.623 301.98 151.391C302.05 151.551 302.025 151.7 301.906 151.838C301.806 151.838 301.757 151.888 301.757 151.987C301.656 151.987 301.608 152.036 301.608 152.136C301.507 152.136 301.458 152.185 301.458 152.285C301.358 152.285 301.309 152.334 301.309 152.434C301.209 152.434 301.16 152.483 301.16 152.583C301.06 152.583 301.01 152.632 301.01 152.732C300.911 152.732 300.861 152.781 300.861 152.881C300.762 152.881 300.712 152.93 300.712 153.03C300.613 153.03 300.563 153.079 300.563 153.179C300.464 153.179 300.414 153.228 300.414 153.327C300.315 153.327 300.265 153.377 300.265 153.476C300.166 153.476 300.116 153.526 300.116 153.625C300.017 153.625 299.967 153.675 299.967 153.774C299.867 153.774 299.818 153.824 299.818 153.923C299.718 153.923 299.669 153.973 299.669 154.072C299.569 154.072 299.52 154.122 299.52 154.221C299.42 154.221 299.37 154.271 299.37 154.37C299.271 154.37 299.221 154.42 299.221 154.519C299.122 154.519 299.072 154.569 299.072 154.668C298.973 154.668 298.923 154.718 298.923 154.817C298.824 154.817 298.774 154.867 298.774 154.966C298.675 154.966 298.625 155.016 298.625 155.115C298.526 155.115 298.476 155.165 298.476 155.264C298.377 155.264 298.327 155.314 298.327 155.413C298.228 155.413 298.178 155.463 298.178 155.562C298.078 155.562 298.029 155.611 298.029 155.711C297.929 155.711 297.88 155.76 297.88 155.86C297.78 155.86 297.731 155.909 297.731 156.009C297.631 156.009 297.581 156.058 297.581 156.158C297.482 156.158 297.432 156.207 297.432 156.307C297.333 156.307 297.283 156.356 297.283 156.456C297.184 156.456 297.134 156.505 297.134 156.605C297.035 156.605 296.985 156.654 296.985 156.753C296.886 156.753 296.836 156.803 296.836 156.902C296.737 156.902 296.687 156.952 296.687 157.051C296.588 157.051 296.538 157.101 296.538 157.2C296.439 157.2 296.389 157.25 296.389 157.349C296.289 157.349 296.24 157.399 296.24 157.498C296.14 157.498 296.091 157.548 296.091 157.647C295.991 157.647 295.942 157.697 295.942 157.796C295.842 157.796 295.792 157.846 295.792 157.945C295.693 157.945 295.643 157.995 295.643 158.094C295.544 158.094 295.494 158.144 295.494 158.243C295.395 158.243 295.345 158.293 295.345 158.392C295.246 158.392 295.196 158.442 295.196 158.541C295.097 158.541 295.047 158.591 295.047 158.69C294.948 158.69 294.898 158.74 294.898 158.839C294.799 158.839 294.749 158.889 294.749 158.988C294.649 158.988 294.6 159.037 294.6 159.137C294.5 159.137 294.451 159.186 294.451 159.286C294.351 159.286 294.302 159.335 294.302 159.435C294.202 159.435 294.153 159.484 294.153 159.584C294.053 159.584 294.003 159.633 294.003 159.733C293.904 159.733 293.854 159.782 293.854 159.882C293.755 159.882 293.705 159.931 293.705 160.03C293.606 160.03 293.556 160.08 293.556 160.179C293.457 160.179 293.407 160.229 293.407 160.328C293.308 160.328 293.258 160.378 293.258 160.477C293.159 160.477 293.109 160.527 293.109 160.626C293.01 160.626 292.96 160.676 292.96 160.775C292.86 160.775 292.811 160.825 292.811 160.924C292.711 160.924 292.662 160.974 292.662 161.073C292.562 161.073 292.513 161.123 292.513 161.222C292.413 161.222 292.364 161.272 292.364 161.371C292.264 161.371 292.214 161.421 292.214 161.52C292.115 161.52 292.065 161.57 292.065 161.669C291.966 161.669 291.916 161.719 291.916 161.818C291.817 161.818 291.767 161.868 291.767 161.967C291.668 161.967 291.618 162.017 291.618 162.116C291.519 162.116 291.469 162.166 291.469 162.265C291.37 162.265 291.32 162.315 291.32 162.414C290.984 162.507 290.735 162.706 290.574 163.01C290.475 163.01 290.425 163.059 290.425 163.159C290.326 163.159 290.276 163.208 290.276 163.308C289.833 163.553 289.435 163.851 289.084 164.201C288.984 164.201 288.935 164.251 288.935 164.35C288.65 164.386 288.452 164.535 288.338 164.797C288.19 164.772 288.091 164.822 288.04 164.946C287.941 164.946 287.891 164.996 287.891 165.095C287.743 165.07 287.644 165.12 287.593 165.244C287.304 165.335 287.056 165.484 286.847 165.691C286.559 165.782 286.31 165.931 286.102 166.138C285.954 166.113 285.855 166.162 285.804 166.287C285.655 166.261 285.556 166.311 285.506 166.436C285.357 166.41 285.258 166.46 285.207 166.585C285.059 166.559 284.96 166.609 284.909 166.734C284.761 166.708 284.662 166.758 284.611 166.883C284.463 166.857 284.363 166.907 284.313 167.031C284.165 167.006 284.065 167.056 284.015 167.18C283.324 167.344 282.677 167.592 282.077 167.925C281.884 167.89 281.735 167.94 281.629 168.074C281.437 168.039 281.287 168.089 281.182 168.224C280.596 168.287 280.049 168.436 279.541 168.671C274.671 169.619 269.851 169.42 265.08 168.074C264.588 167.761 264.042 167.563 263.44 167.478C263.389 167.354 263.29 167.304 263.142 167.329C262.951 167.117 262.702 167.017 262.397 167.031C261.848 166.658 261.251 166.36 260.608 166.138C260.537 165.929 260.388 165.829 260.16 165.84C260.109 165.715 260.01 165.666 259.862 165.691C259.791 165.482 259.642 165.383 259.415 165.393C259.364 165.268 259.264 165.219 259.117 165.244C259.117 165.145 258.971 164.916 258.872 164.916C258.813 164.763 251.343 157.393 258.872 164.916L243.015 175.97C237.946 169.267 241.176 176.565 241.077 176.565C241.077 176.466 239.586 170.905 241.822 175.374C238.393 171.054 241.325 175.821 241.226 175.821C237.946 173.288 241.772 176.119 241.673 176.119C241.673 176.019 240.629 174.48 241.822 177.31C240.629 174.629 242.133 174.182 242.804 176.268C242.322 174.778 241.798 177.012 241.698 177.012C241.698 176.913 242.226 175.672 242.375 177.31C242.077 175.076 241.623 177.757 241.524 177.757C241.524 177.658 242.071 178.8 241.971 178.8C241.971 178.7 241.922 178.651 241.822 178.651C241.822 178.551 241.772 178.502 241.673 178.502C241.673 178.403 241.623 178.353 241.524 178.353C241.524 178.254 241.474 178.204 241.375 178.204C241.375 178.105 241.325 178.055 241.226 178.055C241.226 177.956 241.176 177.906 241.077 177.906C241.077 177.807 241.027 177.757 240.928 177.757C240.928 177.658 240.878 177.608 240.779 177.608C240.779 177.509 240.729 177.459 240.629 177.459C240.629 177.36 240.58 177.31 240.48 177.31C240.48 177.211 240.431 177.161 240.331 177.161C240.331 177.062 240.282 177.012 240.182 177.012C240.182 176.913 240.132 176.863 240.033 176.863C240.033 176.764 239.983 176.714 239.884 176.714C239.884 176.615 239.834 176.565 239.735 176.565C239.735 176.466 239.685 176.416 239.586 176.416C239.586 176.317 239.536 176.268 239.437 176.268C239.437 176.168 239.387 176.119 239.288 176.119C239.288 176.019 239.238 175.97 239.139 175.97C239.139 175.87 239.089 175.821 238.99 175.821C238.99 175.721 238.94 175.672 238.84 175.672C238.84 175.572 238.791 175.523 238.691 175.523C238.691 175.423 238.642 175.374 238.542 175.374C238.542 175.274 238.493 175.225 238.393 175.225C238.393 175.126 238.343 175.076 238.244 175.076C238.244 174.977 238.194 174.927 238.095 174.927C238.095 174.828 238.045 174.778 237.946 174.778C237.946 174.679 237.896 174.629 237.797 174.629C237.797 174.53 237.747 174.48 237.648 174.48C237.648 174.381 237.598 174.331 237.498 174.331C237.498 174.232 237.448 174.182 237.349 174.182C237.349 174.083 237.299 174.033 237.2 174.033C237.2 173.934 237.15 173.884 237.051 173.884C237.051 173.785 237.001 173.735 236.902 173.735C236.902 173.636 236.852 173.586 236.753 173.586C236.753 173.487 236.703 173.437 236.603 173.437C236.603 173.338 236.554 173.288 236.454 173.288C236.454 173.189 236.405 173.139 236.305 173.139C236.305 173.04 236.256 172.99 236.156 172.99C236.156 172.891 236.106 172.841 236.007 172.841C236.007 172.742 236.007 172.544 236.007 172.544C241.524 173.437 258.872 164.916 258.872 164.916C258.982 165.099 251.218 157.26 251.065 157.2C251.065 157.101 251.016 157.051 250.916 157.051C250.942 156.904 250.893 156.805 250.767 156.753C250.676 156.465 250.527 156.217 250.32 156.009C247.013 149.912 246.069 143.457 247.487 136.644C247.771 135.988 247.97 135.293 248.084 134.558C248.219 134.452 248.268 134.303 248.233 134.111C248.368 134.005 248.418 133.856 248.382 133.664C248.596 133.474 248.695 133.226 248.68 132.92C248.894 132.729 248.993 132.48 248.978 132.175C249.104 132.124 249.153 132.024 249.127 131.877C249.253 131.826 249.302 131.727 249.276 131.579C249.402 131.528 249.451 131.429 249.425 131.281C249.65 131.031 249.799 130.733 249.873 130.387C250.109 130.065 250.307 129.717 250.469 129.345C250.676 129.136 250.825 128.887 250.916 128.6C251.124 128.391 251.273 128.143 251.364 127.855C251.463 127.855 251.513 127.805 251.513 127.706C251.723 127.636 251.822 127.487 251.811 127.259C251.91 127.259 251.96 127.21 251.96 127.11C252.094 126.993 252.194 126.844 252.258 126.663C252.357 126.663 252.407 126.614 252.407 126.515C252.627 126.374 252.776 126.176 252.854 125.919C252.954 125.919 253.004 125.869 253.004 125.77C253.103 125.77 253.153 125.72 253.153 125.621C253.546 125.178 253.944 124.731 254.345 124.279C254.445 124.279 254.494 124.231 254.494 124.13C254.594 124.13 254.643 124.082 254.643 123.982C254.743 123.982 254.793 123.932 254.793 123.833C254.892 123.833 254.942 123.783 254.942 123.684C255.041 123.684 255.091 123.634 255.091 123.535C255.19 123.535 255.24 123.485 255.24 123.386C255.339 123.386 255.389 123.336 255.389 123.237C255.488 123.237 255.538 123.187 255.538 123.088C255.637 123.088 255.687 123.038 255.687 122.939C255.786 122.939 255.836 122.889 255.836 122.79C255.936 122.79 255.985 122.74 255.985 122.641C256.085 122.641 256.134 122.591 256.134 122.492C256.234 122.492 256.283 122.442 256.283 122.343C256.383 122.343 256.433 122.293 256.433 122.194C256.532 122.194 256.582 122.144 256.582 122.045C256.681 122.045 256.731 121.995 256.731 121.896C256.83 121.896 256.88 121.846 256.88 121.747C256.979 121.747 257.029 121.698 257.029 121.598C257.128 121.598 257.178 121.549 257.178 121.449C257.277 121.449 257.327 121.4 257.327 121.3C257.427 121.3 257.476 121.251 257.476 121.151C257.576 121.151 257.625 121.102 257.625 121.002C257.725 121.002 257.774 120.953 257.774 120.853C257.874 120.853 257.923 120.804 257.923 120.704C258.023 120.704 258.072 120.655 258.072 120.556C258.173 120.556 258.222 120.506 258.222 120.407C258.322 120.407 258.371 120.357 258.371 120.258C258.471 120.258 258.52 120.208 258.52 120.109C258.62 120.109 258.669 120.059 258.669 119.96C258.769 119.96 258.819 119.91 258.819 119.811C258.918 119.811 258.968 119.761 258.968 119.662C259.067 119.662 259.117 119.612 259.117 119.513C259.216 119.513 259.266 119.463 259.266 119.364C259.365 119.364 259.415 119.314 259.415 119.215C259.514 119.215 259.564 119.165 259.564 119.066C259.663 119.066 259.713 119.016 259.713 118.917C259.812 118.917 259.862 118.867 259.862 118.768C259.962 118.768 260.011 118.718 260.011 118.619C260.111 118.619 260.16 118.569 260.16 118.47C260.26 118.47 260.309 118.42 260.309 118.321C260.409 118.321 260.459 118.272 260.459 118.172C260.558 118.172 260.608 118.123 260.608 118.023C260.707 118.023 260.757 117.974 260.757 117.874C260.856 117.874 260.906 117.825 260.906 117.725C261.005 117.725 261.055 117.676 261.055 117.576C261.154 117.576 261.204 117.527 261.204 117.427C261.303 117.427 261.353 117.378 261.353 117.278C261.452 117.278 261.502 117.229 261.502 117.129C261.602 117.129 261.651 117.08 261.651 116.981C261.751 116.981 261.8 116.931 261.8 116.832C261.9 116.832 261.949 116.782 261.949 116.683C262.049 116.683 262.098 116.633 262.098 116.534C262.198 116.534 262.248 116.484 262.248 116.385C262.347 116.385 262.397 116.335 262.397 116.236C262.496 116.236 262.546 116.186 262.546 116.087C262.645 116.087 262.695 116.037 262.695 115.938C262.794 115.938 262.844 115.888 262.844 115.789C262.943 115.789 262.993 115.739 262.993 115.64C263.092 115.64 263.142 115.59 263.142 115.491C263.241 115.491 263.291 115.441 263.291 115.342C263.391 115.342 263.44 115.292 263.44 115.193C263.54 115.193 263.589 115.143 263.589 115.044C263.689 115.044 263.738 114.994 263.738 114.895C263.838 114.895 263.887 114.845 263.887 114.746C263.987 114.746 264.037 114.697 264.037 114.597C264.136 114.597 264.186 114.548 264.186 114.448C264.285 114.448 264.335 114.399 264.335 114.299C264.472 114.18 264.621 114.155 264.782 114.224C266.551 116.018 268.34 117.78 270.149 119.513C270.199 119.711 270.248 119.711 270.298 119.513C270.398 119.513 270.447 119.463 270.447 119.364C275.834 114.056 281.201 108.718 286.549 103.351C287.573 102.616 288.716 102.343 289.978 102.531ZM307.869 124.13C307.968 124.13 308.068 124.13 308.167 124.13C308.097 124.34 307.948 124.439 307.72 124.428C307.77 124.329 307.819 124.231 307.869 124.13ZM275.516 124.875C275.616 124.875 275.715 124.875 275.814 124.875C280.933 130.089 286.102 135.253 291.32 140.367C291.32 140.467 291.32 140.566 291.32 140.665C286.003 135.452 280.735 130.189 275.516 124.875ZM259.415 165.393C259.642 165.383 259.791 165.482 259.862 165.691C259.762 165.691 259.663 165.691 259.564 165.691C259.514 165.592 259.464 165.492 259.415 165.393ZM260.16 165.84C260.388 165.829 260.537 165.929 260.608 166.138C260.508 166.138 260.409 166.138 260.309 166.138C260.26 166.038 260.209 165.939 260.16 165.84ZM263.142 167.329C262.951 167.117 262.702 167.017 262.397 167.031C262.587 167.245 262.836 167.344 263.142 167.329ZM265.08 168.074C264.588 167.761 264.042 167.563 263.44 167.478C263.931 167.792 264.478 167.99 265.08 168.074Z" fill="#1596FA"/>
</svg>
